<svg width="92" height="96" viewBox="0 0 92 96" fill="none" xmlns="http://www.w3.org/2000/svg">
<path d="M4.85458 0C2.17347 0 0 2.1649 0 4.83544V91.1646C0 93.8351 2.17347 96 4.85458 96H74.0018C76.6829 96 78.8564 93.8351 78.8564 91.1646V62.1458C78.8564 61.5935 78.4087 61.1458 77.8564 61.1458H71.2047C70.6524 61.1458 70.2047 61.5935 70.2047 62.1457V87.0379C70.2047 87.2433 70.0375 87.4098 69.8312 87.4098H8.9623C8.75606 87.4098 8.58887 87.2433 8.58887 87.0379V9.67088C8.58887 9.46545 8.75606 9.29892 8.9623 9.29892H69.8312C70.0375 9.29892 70.2047 9.46545 70.2047 9.67087V33.9639C70.2047 34.5162 70.6524 34.9639 71.2047 34.9639H77.8564C78.4087 34.9639 78.8564 34.5162 78.8564 33.9639V4.83544C78.8564 2.1649 76.6829 0 74.0018 0H4.85458Z" fill="#656565"/>
<path d="M27.7935 48.8669C27.1249 48.4824 27.1249 47.5176 27.7935 47.1331L51.073 33.7457C51.7397 33.3623 52.5716 33.8435 52.5716 34.6126V43.6364H87.6364C90.0463 43.6364 92 45.5901 92 48C92 50.41 90.0463 52.3637 87.6364 52.3637H52.5716V61.3874C52.5716 62.1565 51.7397 62.6377 51.073 62.2543L27.7935 48.8669Z" fill="#656565"/>
</svg>
