<svg width="40" height="40" viewBox="0 0 40 40" fill="none" xmlns="http://www.w3.org/2000/svg">
<path fill-rule="evenodd" clip-rule="evenodd" d="M20 40C31.0457 40 40 31.0457 40 20C40 8.9543 31.0457 0 20 0C8.9543 0 0 8.9543 0 20C0 31.0457 8.9543 40 20 40ZM29.7646 25.0322C29.7854 25.053 29.8061 25.0737 29.8061 25.1153V25.1153C29.8061 25.1983 29.8061 25.2813 29.9722 25.4474V25.7794C29.9722 25.9455 29.8892 26.0285 29.7231 26.1115C29.5571 26.1946 29.308 26.2776 29.0589 26.2776L26.2361 26.3606H26.2361C26.0701 26.3606 25.904 26.3606 25.655 26.2776C25.4059 26.1946 25.2399 26.1115 25.0738 26.0285L24.8248 25.8625C24.6587 25.7795 24.4097 25.5304 24.0777 25.1984L24.0776 25.1983L24.0773 25.1981C23.7454 24.8661 23.4963 24.6171 23.3303 24.3681C23.1643 24.119 22.9152 23.8699 22.6662 23.7039C22.5001 23.5378 22.251 23.4548 22.085 23.5378H22.002L21.8359 23.7039C21.7529 23.7869 21.6699 23.8699 21.5869 24.036C21.5403 24.1292 21.5198 24.2225 21.4961 24.3304C21.4777 24.4147 21.4572 24.5079 21.4208 24.6171C21.3378 24.8662 21.3378 25.1153 21.3378 25.4474V25.7794C21.3378 25.821 21.317 25.8417 21.2963 25.8625C21.2755 25.8832 21.2548 25.904 21.2548 25.9455L21.1718 26.0285C21.0057 26.1946 20.8397 26.2776 20.5906 26.2776H19.3452C18.8471 26.3606 18.349 26.2776 17.7678 26.1115C17.2697 25.9455 16.7715 25.7794 16.3564 25.5304L16.3563 25.5303C15.9413 25.2813 15.5262 25.0322 15.1941 24.7832C14.862 24.5341 14.613 24.2851 14.4469 24.119L14.4469 24.119L14.1978 23.8699L13.8657 23.5378C13.7827 23.3718 13.5336 23.0397 13.1185 22.5415C12.8594 22.2306 12.6327 21.8874 12.3979 21.532C12.2565 21.318 12.1122 21.0995 11.9562 20.8811C11.8557 20.7051 11.7399 20.5063 11.6135 20.2893C11.3225 19.7896 10.9752 19.1932 10.6278 18.5564C10.1297 17.5602 9.63157 16.5639 9.21645 15.5676C9.13343 15.4016 9.13342 15.3186 9.13342 15.2355V15.0695L9.21645 14.9865C9.29947 14.9034 9.46552 14.8204 9.79761 14.8204H12.7864C12.828 14.8204 12.8695 14.8412 12.911 14.8619C12.9525 14.8827 12.994 14.9034 13.0355 14.9034C13.1185 14.9034 13.2016 14.9865 13.2016 14.9865H13.2846C13.3676 15.0695 13.4506 15.1525 13.5336 15.3186C13.6167 15.5261 13.6997 15.7129 13.7827 15.8997C13.8657 16.0865 13.9488 16.2733 14.0318 16.4809C14.1978 16.896 14.3639 17.2281 14.4469 17.3941L14.6129 17.7262C14.7264 18.0666 14.8786 18.3295 15.0167 18.5678C15.0806 18.6782 15.1415 18.7834 15.1941 18.8885C15.3601 19.2206 15.5262 19.4697 15.6922 19.6357C15.7753 19.8018 15.9413 19.9678 16.1074 20.0509C16.1904 20.1339 16.3564 20.2169 16.4394 20.2169C16.5367 20.2169 16.6055 20.1884 16.6625 20.1648C16.7028 20.1481 16.7371 20.1339 16.7715 20.1339C16.8546 20.1339 16.8546 20.0509 16.8546 20.0509C16.9133 20.0509 16.9305 20.0093 16.9649 19.9263C16.9791 19.8919 16.9963 19.8504 17.0206 19.8018C17.1036 19.7188 17.1866 19.5527 17.1866 19.3036C17.1866 19.1949 17.2025 19.0862 17.2203 18.9637C17.2433 18.8055 17.2697 18.6243 17.2697 18.3904V17.062C17.2697 16.7299 17.2697 16.4809 17.1866 16.2318C17.1549 16.1367 17.1353 16.0536 17.1186 15.9827C17.0915 15.868 17.0719 15.785 17.0206 15.7337L16.9376 15.5676C16.7715 15.3185 16.4394 15.1525 16.0243 15.0695C15.9413 15.0695 15.9413 14.9865 16.1074 14.8204C16.1904 14.6544 16.3564 14.5714 16.5225 14.4883L16.5225 14.4883C16.8546 14.3223 17.7678 14.2393 19.0962 14.2393C19.6773 14.2393 20.1755 14.3223 20.5906 14.4053C20.6321 14.4468 20.6944 14.4676 20.7566 14.4883C20.8189 14.5091 20.8812 14.5298 20.9227 14.5713L21.1718 14.8204C21.1718 14.8619 21.1925 14.9242 21.2133 14.9865C21.234 15.0487 21.2548 15.111 21.2548 15.1525V15.6506V16.2318V16.979V17.8923V18.3904V18.8885V19.3036C21.2912 19.3764 21.3116 19.4492 21.3301 19.5151C21.3538 19.5993 21.3742 19.6721 21.4208 19.7188L21.6699 19.9678C21.6699 20.0509 21.7529 20.0509 21.8359 20.0509C21.8359 20.1339 22.002 20.0509 22.085 19.9678C22.1386 19.8606 22.2268 19.788 22.3273 19.7053C22.3825 19.6599 22.4413 19.6115 22.5001 19.5527C22.6217 19.4312 22.7433 19.2651 22.8974 19.0545C22.9538 18.9775 23.0146 18.8945 23.0813 18.8055C23.3303 18.4735 23.5793 18.0584 23.8284 17.6434L23.8285 17.6432C23.9122 17.4758 23.9959 17.3118 24.0789 17.1491C24.4076 16.5049 24.7257 15.8816 24.9908 15.1525C24.9908 15.0695 24.9908 15.0695 25.0738 14.9865L25.0738 14.9865L25.1569 14.9034H25.2399H25.3229H25.4889H25.738H28.8929C29.142 14.8204 29.391 14.8204 29.5571 14.9034C29.7231 14.9034 29.8061 14.9865 29.8892 15.0695L29.9722 15.1525C30.1382 15.6506 29.5571 16.7299 28.3117 18.3904C28.1408 18.5613 28.009 18.7322 27.8358 18.9567C27.7566 19.0594 27.6687 19.1734 27.5645 19.3036C27.5217 19.3586 27.4803 19.4118 27.4402 19.4633C26.9358 20.1111 26.6452 20.4843 26.5683 20.715C26.4852 21.0471 26.4852 21.2962 26.7343 21.6283C26.7794 21.6734 26.8307 21.7308 26.8914 21.7988C27.0541 21.981 27.2848 22.2393 27.6475 22.5415C28.6438 23.4548 29.391 24.285 29.7231 24.9492C29.7231 24.9907 29.7439 25.0115 29.7646 25.0322Z" fill="#FFCC00"/>
</svg>
