<svg width="40" height="40" viewBox="0 0 40 40" fill="none" xmlns="http://www.w3.org/2000/svg">
<path fill-rule="evenodd" clip-rule="evenodd" d="M20 40C31.0457 40 40 31.0457 40 20C40 8.9543 31.0457 0 20 0C8.9543 0 0 8.9543 0 20C0 31.0457 8.9543 40 20 40ZM28.6843 18.3313C28.6992 18.5392 28.7131 18.7331 28.7131 18.9131V20.4V21.8869V21.8871C28.7131 22.275 28.7131 22.7274 28.6485 23.2444C28.6485 23.8263 28.5838 24.2788 28.4545 24.7313C28.3253 25.2485 28.0667 25.6364 27.7434 25.9596C27.4202 26.2828 26.9677 26.4768 26.5152 26.5414C25.0929 26.7354 22.8303 26.8 19.8566 26.8C16.8828 26.8 14.6848 26.7354 13.198 26.5414C12.7455 26.4768 12.2929 26.2828 11.9697 25.9596C11.5818 25.6364 11.3879 25.2485 11.2586 24.7313C11.194 24.2792 11.1294 23.7626 11.0648 23.2459L11.0647 23.2444C11.0647 22.9673 11.0461 22.7087 11.0289 22.4687C11.0139 22.2608 11 22.0669 11 21.8869V20.4V18.9131C11 18.5252 11 18.0727 11.0647 17.5556C11.0647 16.9737 11.1293 16.5212 11.2586 16.0687C11.3879 15.5515 11.6465 15.1636 11.9697 14.8404C12.2929 14.5172 12.7455 14.3232 13.198 14.2586C14.6202 14.0646 16.8828 14 19.8566 14C22.8303 14 25.0283 14.0646 26.5152 14.2586C26.9677 14.3232 27.4202 14.5172 27.7434 14.8404C28.1313 15.1636 28.3253 15.5515 28.4545 16.0687C28.5192 16.5212 28.5839 17.0384 28.6485 17.5556C28.6485 17.8327 28.6671 18.0913 28.6843 18.3313ZM18.1758 24.0848L23.2828 20.9172C23.4768 20.7879 23.6061 20.4646 23.6061 20.2707C23.6061 20.0768 23.4768 19.8828 23.2828 19.7535L18.1758 16.5859C17.9818 16.4566 17.7232 16.4566 17.5293 16.5859C17.3354 16.7152 17.2061 16.9091 17.2061 17.1677V23.5677C17.2061 23.8263 17.3354 24.0202 17.5293 24.1495C17.6586 24.2141 17.7232 24.2141 17.8525 24.2141C17.9818 24.2141 18.1111 24.1495 18.1758 24.0848Z" fill="#FFCC00"/>
</svg>
